<svg viewBox="0 0 1400 420" xmlns="http://www.w3.org/2000/svg" preserveAspectRatio="xMidYMid slice">
  <defs><linearGradient id="sky" x1="0" y1="0" x2="0" y2="1">
      <stop offset="0%" stop-color="#bfe0f2"/>
      <stop offset="55%" stop-color="#eaf1d8"/>
      <stop offset="100%" stop-color="#fbdcc4"/>
    </linearGradient></defs>
  <rect width="1400" height="420" fill="url(#sky)"/><circle cx="1180" cy="90" r="140" fill="#fff7e0" opacity="0.55"/><g opacity="0.9"><path d="M120 57.4 C122.8 67.2 132.6 70 122.8 72.8 C120 82.6 117.2 72.8 107.4 70 C117.2 67.2 120 57.4 120 57.4Z" fill="#fff"/></g><g opacity="0.7"><path d="M260 131 C262 138 269 140 262 142 C260 149 258 142 251 140 C258 138 260 131 260 131Z" fill="#fff"/></g><g opacity="0.85"><path d="M980 49.2 C982.4 57.6 990.8 60 982.4 62.4 C980 70.8 977.6 62.4 969.2 60 C977.6 57.6 980 49.2 980 49.2Z" fill="#fff"/></g><g opacity="0.6"><path d="M1300 211 C1302 218 1309 220 1302 222 C1300 229 1298 222 1291 220 C1298 218 1300 211 1300 211Z" fill="#fff"/></g><g opacity="0.95" transform="translate(220,300) scale(1.3)">
    <ellipse cx="0" cy="0" rx="70" ry="34" fill="#fff"/>
    <ellipse cx="-45" cy="10" rx="42" ry="26" fill="#fff"/>
    <ellipse cx="48" cy="8" rx="46" ry="28" fill="#fff"/>
    <ellipse cx="0" cy="-16" rx="46" ry="30" fill="#fff"/>
  </g><g opacity="0.85" transform="translate(520,340) scale(1.0)">
    <ellipse cx="0" cy="0" rx="70" ry="34" fill="#fff"/>
    <ellipse cx="-45" cy="10" rx="42" ry="26" fill="#fff"/>
    <ellipse cx="48" cy="8" rx="46" ry="28" fill="#fff"/>
    <ellipse cx="0" cy="-16" rx="46" ry="30" fill="#fff"/>
  </g><g opacity="0.95" transform="translate(980,310) scale(1.5)">
    <ellipse cx="0" cy="0" rx="70" ry="34" fill="#fff"/>
    <ellipse cx="-45" cy="10" rx="42" ry="26" fill="#fff"/>
    <ellipse cx="48" cy="8" rx="46" ry="28" fill="#fff"/>
    <ellipse cx="0" cy="-16" rx="46" ry="30" fill="#fff"/>
  </g><g opacity="0.85" transform="translate(1260,350) scale(1.0)">
    <ellipse cx="0" cy="0" rx="70" ry="34" fill="#fff"/>
    <ellipse cx="-45" cy="10" rx="42" ry="26" fill="#fff"/>
    <ellipse cx="48" cy="8" rx="46" ry="28" fill="#fff"/>
    <ellipse cx="0" cy="-16" rx="46" ry="30" fill="#fff"/>
  </g><g opacity="0.7" transform="translate(760,120) scale(0.8)">
    <ellipse cx="0" cy="0" rx="70" ry="34" fill="#fff"/>
    <ellipse cx="-45" cy="10" rx="42" ry="26" fill="#fff"/>
    <ellipse cx="48" cy="8" rx="46" ry="28" fill="#fff"/>
    <ellipse cx="0" cy="-16" rx="46" ry="30" fill="#fff"/>
  </g>
</svg>